<?xml version="1.0" standalone="no"?>
<!DOCTYPE svg PUBLIC "-//W3C//DTD SVG 20010904//EN"
 "http://www.w3.org/TR/2001/REC-SVG-20010904/DTD/svg10.dtd">
<svg version="1.0" xmlns="http://www.w3.org/2000/svg"
 width="60.000000pt" height="60.000000pt" viewBox="0 0 60.000000 60.000000"
 preserveAspectRatio="xMidYMid meet">
<metadata>
Created by potrace 1.16, written by Peter Selinger 2001-2019
</metadata>
<g transform="translate(0.000000,60.000000) scale(0.100000,-0.100000)"
fill="#000000" stroke="none">
<path d="M140 457 c0 -31 6 -49 20 -62 17 -15 20 -31 20 -101 0 -46 -4 -86
-10 -89 -5 -3 -10 -19 -10 -36 0 -22 -5 -29 -20 -29 -16 0 -20 -7 -20 -30 l0
-30 195 0 195 0 0 30 c0 23 -4 30 -20 30 -14 0 -20 7 -20 24 0 13 -7 29 -15
36 -11 9 -15 34 -15 95 0 69 3 85 20 100 14 13 20 31 20 62 l0 43 -40 0 c-22
0 -40 -4 -40 -10 0 -5 -9 -10 -20 -10 -11 0 -20 5 -20 10 0 6 -22 10 -50 10
-27 0 -50 -4 -50 -10 0 -5 -7 -10 -15 -10 -8 0 -15 5 -15 10 0 6 -20 10 -45
10 l-45 0 0 -43z m270 -152 l0 -75 -100 0 -100 0 0 75 0 75 100 0 100 0 0 -75z"/>
</g>
</svg>
